# xmcd
#
# Track frame offsets:
#	150
#	16427
#	47315
#	80467
#	99408
#	112338
#	129128
#	145727
#	163272
#	181681
#	197000
#
# Disc length: 2895 seconds
#
# Revision: 1
# Processed by: cddbd v1.5.1PL2 Copyright (c) Steve Scherf et al.
# Submitted via: audiograbber 1.83.01
#
DISCID=870b4d0b
DTITLE=Joe Bonamassa - Blues deluxe
DYEAR=2005
DGENRE=Blues
TTITLE0=You upset Me Baby
TTITLE1=Burning Hall
TTITLE2=Blues de Luxe
TTITLE3=Man of Many Words
TTITLE4=Woke up Dreamming
TTITLE5=I don´t live Anywhere
TTITLE6=Wild about you Baby
TTITLE7=Long Distance Blues
TTITLE8=Pack it up
TTITLE9=Left Overs
TTITLE10=Walking Blues
EXTD=
EXTT0=
EXTT1=
EXTT2=
EXTT3=
EXTT4=
EXTT5=
EXTT6=
EXTT7=
EXTT8=
EXTT9=
EXTT10=
PLAYORDER=
